<svg xmlns="http://www.w3.org/2000/svg" viewBox="0 0 64 64" width="64" height="64"><defs><radialGradient id="g" cx=".5" cy=".35" r=".8"><stop offset="0" stop-color="#0d4d78"/><stop offset="1" stop-color="#04111d"/></radialGradient></defs><rect width="64" height="64" rx="14" fill="url(#g)"/><g transform="translate(10.24 14.24) scale(0.08882) translate(-80 -52)"><g fill="#2fc8ff"><path d="M212 90 H243 V200 H212 Z"/><path d="M172 228 H200 V380 H172 Z"/><path d="M445 200 H472 V292 H445 Z"/><path d="M274 262 H320 V372 H274 Z"/></g><g fill="#fff"><path d="M135 247 L322 62 L512 247 L452 247 L322 117 L192 247 Z"/><path d="M326 262 H372 V356 H326 Z"/><path d="M92 300 C90 396 186 442 300 440 C420 436 548 334 556 186 C530 290 450 378 338 394 C212 410 124 374 92 300 Z"/></g></g></svg>